<svg xmlns="http://www.w3.org/2000/svg" xml:space="preserve" viewBox="0 0 512 512">
  <path fill="#E6E6E6" d="m337.6 189.3-5 29.2a11.8 11.8 0 0 0 11.6 14c2 0 3.9-.5 5.6-1.4l26.3-13.9 26.3 13.9a12 12 0 0 0 12.5-1c3.7-2.6 5.5-7 4.7-11.5l-5-29.3 21.3-20.8a11.8 11.8 0 0 0-6.6-20.2L400 144l-13.2-26.7a11.8 11.8 0 0 0-21.3 0L352.3 144l-29.4 4.2a12 12 0 0 0-6.6 20.3l21.3 20.8zm21.2-30c2.7-.3 5-2 6.1-4.4l11.2-22.6 11.2 22.6a8 8 0 0 0 6 4.5l25 3.6-18 17.6a8.1 8.1 0 0 0-2.4 7.2l4.3 24.9-22.3-11.8a8.1 8.1 0 0 0-7.6 0L350 212.7l4.2-25c.5-2.5-.4-5.2-2.3-7L334 163l25-3.6z"/>
  <path fill="#E6E6E6" d="M445.9 429.5a227.9 227.9 0 0 1-172.7-53.1 8.1 8.1 0 0 0-10.6 12.3A244.1 244.1 0 0 0 423 447 240 240 0 0 1 38.2 256 240.1 240.1 0 0 1 263.4 16.6a244.1 244.1 0 0 0-19.7 354 8.1 8.1 0 0 0 11.8-11A228 228 0 0 1 292.3 15 8.1 8.1 0 0 0 288 .2L278 0A254.3 254.3 0 0 0 97 75c-48.4 48.3-75 112.6-75 181s26.6 132.7 75 181a254.3 254.3 0 0 0 181 75 255 255 0 0 0 174.3-68.5 8.1 8.1 0 0 0-6.4-14z"/>
  <path fill="#E6E6E6" d="M327.5 325.2a33 33 0 1 0 65.8 0 33 33 0 0 0-65.8 0zm49.6 0a16.7 16.7 0 1 1-33.5 0 16.7 16.7 0 0 1 33.5 0zm95.6-69.2a17.3 17.3 0 1 0 0 34.6 17.3 17.3 0 0 0 0-34.6z"/>
</svg>
