<svg xmlns="http://www.w3.org/2000/svg" xml:space="preserve" viewBox="0 0 512 512">
  <path fill="#E6E6E6" d="M326.4 44.8A19.2 19.2 0 0 0 307.2 64v12.8a19.2 19.2 0 1 0 38.4 0V64c0-10.6-8.6-19.2-19.2-19.2zm96 185.6a96.1 96.1 0 0 0-178.7-48.8A121.5 121.5 0 0 0 77 289a89.7 89.7 0 0 0 12.7 178.3h224a109 109 0 0 0 86.3-175 95.2 95.2 0 0 0 22.5-61.8zM313.6 428.8h-224a51.3 51.3 0 0 1 0-102.4H96c10.6 0 19.2-8.6 19.2-19.2v-12.7A83.3 83.3 0 0 1 279 273.6a19.2 19.2 0 0 0 18.6 14.4h16a70.5 70.5 0 0 1 0 140.8zm57.8-162.5a108.1 108.1 0 0 0-57.8-16.7h-2.1c-7.6-19-19.7-35.5-34.9-48.3a57.7 57.7 0 1 1 94.8 65zm121.4-55.1H480a19.2 19.2 0 1 0 0 38.4h12.8a19.2 19.2 0 0 0 0-38.4zm-35.2-112a19.2 19.2 0 0 0-27.1 0l-9 9a19.2 19.2 0 0 0 27 27.2l9.1-9a19.2 19.2 0 0 0 0-27.2zm-226.2 9-9-9a19.2 19.2 0 0 0-27.2 27.1l9 9a19.1 19.1 0 0 0 27.2 0 19.2 19.2 0 0 0 0-27z"/>
</svg>
