<svg xmlns="http://www.w3.org/2000/svg" xml:space="preserve" viewBox="0 0 512 512">
  <path fill="#E6E6E6" d="M320 128a96.1 96.1 0 0 1 96 94.8c-.3 2-.4 3.9-.5 5.9l-.8 23.5 22.2 7.7A63.9 63.9 0 0 1 416 384H96a64 64 0 0 1-1-128l4.6.5 24.3 1.6 8-23A63.9 63.9 0 0 1 192 192c3.1 0 6.6.4 11.2 1.2l22.4 4 11.2-19.8A96 96 0 0 1 320 128m0-32c-48 0-89.2 26.7-111.2 65.7a95.7 95.7 0 0 0-107.1 62.9c-1.9-.2-3.7-.6-5.7-.6a96 96 0 0 0 0 192h320a95.7 95.7 0 0 0 31.4-186.3c.1-2 .6-3.8.6-5.7A128 128 0 0 0 320 96z"/>
</svg>
