<svg xmlns="http://www.w3.org/2000/svg" style="isolation:isolate" viewBox="0 0 512 512">
  <path fill="#E6E6E6" d="M431.4 141.6A126 126 0 0 0 307.4 0c-44 0-84.6 23.4-107.1 60.8A83.8 83.8 0 0 0 152.4 46a85.6 85.6 0 0 0-83.6 101.5A103.3 103.3 0 0 0 1.3 245c0 56.3 44.2 98.8 102.8 98.8h294.2c56.7 0 102.8-46.6 102.8-103.8 0-44.5-28.7-84.2-69.7-98.3Zm-33 178.3H104c-45.2 0-79.3-32.2-79.3-75 0-37.3 25-69.3 60.9-77.9a11 11 0 0 0 7.5-5.8c1.6-2.9 2-6.4 1-9.5a62.2 62.2 0 0 1 58.2-82 61 61 0 0 1 43.3 18 11.8 11.8 0 0 0 19-3.5 102 102 0 0 1 92.6-60.4 102.3 102.3 0 0 1 99.4 124.5 12 12 0 0 0 9 13.5 80.4 80.4 0 0 1 61.9 78 79.8 79.8 0 0 1-79.3 80.1Zm-266.2 56.9a11.8 11.8 0 0 0-13.3 10L111 443a11.9 11.9 0 0 0 11.7 13.5c5.8 0 10.8-4.2 11.7-10.2l7.8-56.1c.9-6.5-3.6-12.5-10-13.4Zm81.4 0a11.8 11.8 0 0 0-13.3 10l-15.7 111.6a11.9 11.9 0 0 0 11.6 13.6 12 12 0 0 0 11.7-10.2l15.7-111.6c.9-6.5-3.6-12.5-10-13.4Zm84.3 0a11.8 11.8 0 0 0-13.4 10L269 498.5a11.9 11.9 0 0 0 11.6 13.6 12 12 0 0 0 11.7-10.2l15.6-111.6c1-6.5-3.5-12.5-10-13.4Zm81.3 0a11.8 11.8 0 0 0-13.3 10l-7.8 56.2a11.9 11.9 0 0 0 11.6 13.5c5.8 0 10.8-4.2 11.7-10.2l7.8-56.1a12 12 0 0 0-10-13.4Z"/>
</svg>
