<svg xmlns="http://www.w3.org/2000/svg" style="isolation:isolate" viewBox="0 0 512 512">
  <path fill="#E6E6E6" d="M114.5 396a12.6 12.6 0 0 0-14 10.7L94 452.5a12.5 12.5 0 0 0 24.7 3.5l6.5-45.8c1-6.9-3.8-13.2-10.7-14.2Zm67 0c-6.7-1-13 3.8-14 10.6l-13 91.1a12.5 12.5 0 1 0 24.8 3.5l13-91c.9-6.9-3.9-13.2-10.7-14.2Zm69.5 0c-6.8-1-13.2 3.8-14.1 10.6l-13 91.1a12.5 12.5 0 1 0 24.8 3.5l13-91c1-6.9-3.8-13.2-10.7-14.2Zm67 0a12.6 12.6 0 0 0-14 10.7l-6.5 45.8a12.5 12.5 0 1 0 24.7 3.5l6.5-45.8c1-6.9-3.8-13.2-10.7-14.2Zm163.8-277.4v-1.7c-.2-5.3-3.5-10-8.5-11.6-5-1.8-10.5-.2-13.8 3.9a67 67 0 1 1-100.5-88A12.5 12.5 0 0 0 348.6 0c-62.9 7.4-105.2 51.7-105.2 110.1 0 .8.1 1.6.3 2.3a93.4 93.4 0 0 0-69 40.8 64.7 64.7 0 0 0-96.8 64 77 77 0 0 0-47.6 71.5c0 42 33.2 73.8 77.3 73.8h209.2A77.4 77.4 0 0 0 376 236c58.4-10.3 105.8-60.8 105.8-117.4Zm-165 219H107.3c-29.7 0-52.2-21-52.2-48.8A52 52 0 0 1 95.3 238a12.4 12.4 0 0 0 9-16.2 39.7 39.7 0 0 1 65.4-40.8 12.5 12.5 0 0 0 20.2-3.7 68.2 68.2 0 0 1 62-40.1 68.3 68.3 0 0 1 66.7 83c-1 6.5 3.2 12.7 9.6 14.1a52.3 52.3 0 0 1-11.5 103.3Zm37.4-124.7a13 13 0 0 0-6.2 1.7l-3.3-1.4a93.3 93.3 0 0 0-76.9-99.7c.3-1 .5-2.1.5-3.3 0-35.7 21-64.7 54.4-78A92 92 0 0 0 451.3 148a105.4 105.4 0 0 1-97 64.9Z"/>
</svg>
