<svg xmlns="http://www.w3.org/2000/svg" style="isolation:isolate" viewBox="0 0 512 512">
  <path fill="#E6E6E6" d="M411.2 145.7C406 72.7 342.8 15 266 15a145 145 0 0 0-136 90.4h-4.5A125.6 125.6 0 0 0 0 230.8C0 300 56.3 356.3 125.5 356.3h18.2l-2.5 6.4a10 10 0 0 0 9.4 13.7H251v110.4a10 10 0 0 0 19 4.3L334.4 356c.8.2 1.6.5 2.5.5l75.3-.1a105.3 105.3 0 0 0-.9-210.6ZM271.1 442.3v-75.9a10 10 0 0 0-10-10h-95.8l65.6-167.7v107.7a10 10 0 0 0 10 10h94.6l-64.4 136Zm140.4-106.1-68 .1 17-35.6a10 10 0 0 0-9.1-14.3H251V135.5a10 10 0 0 0-19.4-3.6l-80 204.4h-26.1A105.5 105.5 0 1 1 135.9 126c4.6.5 9-2.4 10.5-6.9C163 69 211 35.1 266 35.1c69.2 0 125.5 54 125.5 120.5a10 10 0 0 0 9.8 10h5.3a85.4 85.4 0 0 1 5 170.6Z"/>
</svg>
